<mxfile host="app.diagrams.net" agent="Mozilla/5.0 (Windows NT 10.0; Win64; x64) AppleWebKit/537.36 (KHTML, like Gecko) Chrome/132.0.0.0 Safari/537.36 OPR/117.0.0.0" version="24.7.17">
  <diagram name="Página-1" id="O6Bnf1n2j-Kn4SUIVujL">
    <mxGraphModel dx="1390" dy="794" grid="1" gridSize="10" guides="1" tooltips="1" connect="1" arrows="1" fold="1" page="1" pageScale="1" pageWidth="827" pageHeight="1169" math="0" shadow="0">
      <root>
        <mxCell id="0" />
        <mxCell id="1" parent="0" />
        <mxCell id="WR-nDB7ildCSHOF8Yl4Z-4" value="Criação da conta" style="swimlane;whiteSpace=wrap;html=1;" vertex="1" parent="1">
          <mxGeometry x="40" y="40" width="200" height="200" as="geometry" />
        </mxCell>
        <mxCell id="WR-nDB7ildCSHOF8Yl4Z-6" value="Nome completo&lt;div&gt;email&lt;/div&gt;&lt;div&gt;senha&lt;/div&gt;&lt;div&gt;numero de telefone&lt;/div&gt;&lt;div&gt;endereço&lt;/div&gt;" style="whiteSpace=wrap;html=1;" vertex="1" parent="WR-nDB7ildCSHOF8Yl4Z-4">
          <mxGeometry y="20" width="200" height="180" as="geometry" />
        </mxCell>
        <mxCell id="WR-nDB7ildCSHOF8Yl4Z-9" value="Login da conta" style="swimlane;whiteSpace=wrap;html=1;" vertex="1" parent="1">
          <mxGeometry x="360" y="40" width="200" height="200" as="geometry" />
        </mxCell>
        <mxCell id="WR-nDB7ildCSHOF8Yl4Z-12" value="email&lt;div&gt;senha&lt;/div&gt;" style="whiteSpace=wrap;html=1;" vertex="1" parent="WR-nDB7ildCSHOF8Yl4Z-9">
          <mxGeometry y="20" width="200" height="180" as="geometry" />
        </mxCell>
        <mxCell id="WR-nDB7ildCSHOF8Yl4Z-24" style="edgeStyle=orthogonalEdgeStyle;rounded=0;orthogonalLoop=1;jettySize=auto;html=1;exitX=1;exitY=0.5;exitDx=0;exitDy=0;entryX=0.5;entryY=1;entryDx=0;entryDy=0;" edge="1" parent="1" source="WR-nDB7ildCSHOF8Yl4Z-15" target="WR-nDB7ildCSHOF8Yl4Z-19">
          <mxGeometry relative="1" as="geometry">
            <Array as="points">
              <mxPoint x="410" y="460" />
            </Array>
          </mxGeometry>
        </mxCell>
        <mxCell id="WR-nDB7ildCSHOF8Yl4Z-15" value="Registro da temperatura" style="swimlane;whiteSpace=wrap;html=1;" vertex="1" parent="1">
          <mxGeometry x="210" y="330" width="200" height="200" as="geometry">
            <mxRectangle x="210" y="330" width="170" height="30" as="alternateBounds" />
          </mxGeometry>
        </mxCell>
        <mxCell id="WR-nDB7ildCSHOF8Yl4Z-20" value="registro da temperatura do dia 1&lt;div&gt;registro da temperatura do dia 2&lt;/div&gt;&lt;div&gt;registro da temperatura do dia 3&lt;/div&gt;&lt;div&gt;registro da temperatura do dia 4&lt;/div&gt;&lt;div&gt;registro da temperatura do dia 5&lt;/div&gt;&lt;div&gt;registro da temperatura do dia 6&lt;/div&gt;&lt;div&gt;registro da temperatura do dia 7&lt;/div&gt;" style="whiteSpace=wrap;html=1;" vertex="1" parent="WR-nDB7ildCSHOF8Yl4Z-15">
          <mxGeometry y="20" width="200" height="180" as="geometry" />
        </mxCell>
        <mxCell id="WR-nDB7ildCSHOF8Yl4Z-21" style="edgeStyle=orthogonalEdgeStyle;rounded=0;orthogonalLoop=1;jettySize=auto;html=1;exitX=0.5;exitY=1;exitDx=0;exitDy=0;entryX=0.5;entryY=0;entryDx=0;entryDy=0;" edge="1" parent="1" source="WR-nDB7ildCSHOF8Yl4Z-6" target="WR-nDB7ildCSHOF8Yl4Z-15">
          <mxGeometry relative="1" as="geometry" />
        </mxCell>
        <mxCell id="WR-nDB7ildCSHOF8Yl4Z-23" value="Registro de temperatura" style="swimlane;whiteSpace=wrap;html=1;startSize=23;" vertex="1" parent="1">
          <mxGeometry x="530" y="330" width="210" height="240" as="geometry">
            <mxRectangle x="210" y="585" width="140" height="30" as="alternateBounds" />
          </mxGeometry>
        </mxCell>
        <mxCell id="WR-nDB7ildCSHOF8Yl4Z-19" value="registro da temperatura feita pelo usuario dia 1&lt;div&gt;registro da temperatura feita pelo usuario dia 2&lt;/div&gt;&lt;div&gt;registro da temperatura feita pelo usuario dia 3&lt;/div&gt;&lt;div&gt;registro da temperatura feita pelo usuario dia 4&lt;/div&gt;&lt;div&gt;registro da temperatura feita pelo usuario dia 5&lt;/div&gt;&lt;div&gt;registro da temperatura feita pelo usuario dia 6&lt;/div&gt;&lt;div&gt;registro da temperatura feita pelo usuario dia 7&lt;/div&gt;" style="whiteSpace=wrap;html=1;direction=south;" vertex="1" parent="WR-nDB7ildCSHOF8Yl4Z-23">
          <mxGeometry y="20" width="210" height="220" as="geometry" />
        </mxCell>
        <mxCell id="WR-nDB7ildCSHOF8Yl4Z-22" style="edgeStyle=orthogonalEdgeStyle;rounded=0;orthogonalLoop=1;jettySize=auto;html=1;exitX=0.5;exitY=1;exitDx=0;exitDy=0;entryX=0.5;entryY=0;entryDx=0;entryDy=0;" edge="1" parent="1" source="WR-nDB7ildCSHOF8Yl4Z-12" target="WR-nDB7ildCSHOF8Yl4Z-15">
          <mxGeometry relative="1" as="geometry">
            <mxPoint x="310" y="330" as="targetPoint" />
          </mxGeometry>
        </mxCell>
        <mxCell id="WR-nDB7ildCSHOF8Yl4Z-25" value="ou" style="text;html=1;align=center;verticalAlign=middle;whiteSpace=wrap;rounded=0;" vertex="1" parent="1">
          <mxGeometry x="440" y="425" width="60" height="30" as="geometry" />
        </mxCell>
        <mxCell id="WR-nDB7ildCSHOF8Yl4Z-32" value="" style="endArrow=none;dashed=1;html=1;rounded=0;entryX=0;entryY=0.5;entryDx=0;entryDy=0;" edge="1" parent="1" target="WR-nDB7ildCSHOF8Yl4Z-12">
          <mxGeometry width="50" height="50" relative="1" as="geometry">
            <mxPoint x="240" y="150" as="sourcePoint" />
            <mxPoint x="290" y="100" as="targetPoint" />
          </mxGeometry>
        </mxCell>
        <mxCell id="WR-nDB7ildCSHOF8Yl4Z-33" value="relação: um usuario pode escolher em criar uma conta eu logar em uma existente" style="text;html=1;align=center;verticalAlign=middle;whiteSpace=wrap;rounded=0;" vertex="1" parent="1">
          <mxGeometry x="240" y="160" width="120" height="70" as="geometry" />
        </mxCell>
        <mxCell id="WR-nDB7ildCSHOF8Yl4Z-34" value="relação: um usuario pode escolher em colocar a temperatura (podendo deixa-la personalizada) ou usar a temperatura automática da semana" style="text;html=1;align=center;verticalAlign=middle;whiteSpace=wrap;rounded=0;" vertex="1" parent="1">
          <mxGeometry x="410" y="465" width="120" height="120" as="geometry" />
        </mxCell>
      </root>
    </mxGraphModel>
  </diagram>
</mxfile>
